<svg xmlns="http://www.w3.org/2000/svg" width="60" height="60" viewBox="0 0 60 60" fill="none">
  <path d="M30 5C16.2 5 5 16.2 5 30C5 43.8 16.2 55 30 55C43.8 55 55 43.8 55 30C55 16.2 43.8 5 30 5ZM30 50C18.95 50 10 41.05 10 30C10 18.95 18.95 10 30 10C41.05 10 50 18.95 50 30C50 41.05 41.05 50 30 50Z" fill="#33d657"/>
  <path d="M30 15C21.7 15 15 21.7 15 30C15 38.3 21.7 45 30 45C38.3 45 45 38.3 45 30C45 21.7 38.3 15 30 15ZM30 40C24.5 40 20 35.5 20 30C20 24.5 24.5 20 30 20C35.5 20 40 24.5 40 30C40 35.5 35.5 40 30 40Z" fill="#33d657"/>
  <path d="M30 25C27.25 25 25 27.25 25 30C25 32.75 27.25 35 30 35C32.75 35 35 32.75 35 30C35 27.25 32.75 25 30 25Z" fill="#33d657"/>
</svg>
