<svg xmlns="http://www.w3.org/2000/svg" width="60" height="60" viewBox="0 0 60 60" fill="none">
  <path d="M30 5C16.2 5 5 16.2 5 30C5 43.8 16.2 55 30 55C43.8 55 55 43.8 55 30C55 16.2 43.8 5 30 5Z" fill="#e8f5e9"/>
  <path d="M30 15C21.7 15 15 21.7 15 30C15 38.3 21.7 45 30 45C38.3 45 45 38.3 45 30C45 21.7 38.3 15 30 15Z" fill="#33d657"/>
  <path d="M30 20C24.5 20 20 24.5 20 30C20 35.5 24.5 40 30 40C35.5 40 40 35.5 40 30C40 24.5 35.5 20 30 20Z" fill="#1e7e34"/>
  <path d="M10 10L15 15M50 10L45 15M10 50L15 45M50 50L45 45" stroke="#33d657" stroke-width="2"/>
  <path d="M30 5V15M5 30H15M30 55V45M55 30H45" stroke="#33d657" stroke-width="2"/>
</svg>
